<svg viewBox="0 0 676 676" fill="none" xmlns="http://www.w3.org/2000/svg">
<g filter="url(#filter0_d_12_41)">
<rect x="79.6248" y="73.4583" width="508.75" height="508.75" rx="20" fill="#3E2810"/>
<rect x="1" y="73.4583" width="666" height="117.167" rx="20" fill="#3E2810"/>
<rect x="1" y="275.417" width="666" height="117.167" rx="20" fill="#3E2810"/>
<rect x="275.416" y="667" width="666" height="117.167" rx="20" transform="rotate(-90 275.416 667)" fill="#3E2810"/>
<rect x="471.209" y="667" width="666" height="117.167" rx="20" transform="rotate(-90 471.209 667)" fill="#3E2810"/>
<rect x="79.6248" y="667" width="666" height="117.167" rx="20" transform="rotate(-90 79.6248 667)" fill="#3E2810"/>
<rect x="1" y="465.042" width="666" height="117.167" rx="20" fill="#3E2810"/>
<path d="M196.791 32.2761C196.791 55.5529 206.036 73.4582 235.62 73.4583C265.203 73.4584 196.791 73.4583 196.791 73.4583V32.2761Z" fill="#3E2810"/>
<path d="M588.375 234.235C588.375 257.511 597.62 275.417 627.204 275.417C656.787 275.417 588.375 275.417 588.375 275.417V234.235Z" fill="#3E2810"/>
<path d="M588.375 423.859C588.375 447.136 597.62 465.042 627.204 465.042C656.787 465.042 588.375 465.042 588.375 465.042V423.859Z" fill="#3E2810"/>
<path d="M38.4425 73.4583C61.7194 73.4583 79.6247 64.2134 79.6248 34.6298C79.6248 5.04615 79.6248 73.4583 79.6248 73.4583H38.4425Z" fill="#3E2810"/>
<path d="M38.4425 73.4583C61.7194 73.4583 79.6247 64.2134 79.6248 34.6298C79.6248 5.04615 79.6248 73.4583 79.6248 73.4583H38.4425Z" fill="#3E2810"/>
<path d="M79.6248 231.807C79.6248 208.53 70.3799 190.625 40.7963 190.625C11.2126 190.625 79.6248 190.625 79.6248 190.625L79.6248 231.807Z" fill="#3E2810"/>
<path d="M79.6248 433.765C79.6248 410.489 70.3799 392.583 40.7963 392.583C11.2126 392.583 79.6248 392.583 79.6248 392.583L79.6248 433.765Z" fill="#3E2810"/>
<path d="M79.6248 623.391C79.6248 600.114 70.3799 582.208 40.7963 582.208C11.2126 582.208 79.6248 582.208 79.6248 582.208L79.6248 623.391Z" fill="#3E2810"/>
<path d="M275.416 623.391C275.416 600.114 266.171 582.208 236.587 582.208C207.004 582.208 275.416 582.208 275.416 582.208V623.391Z" fill="#3E2810"/>
<path d="M471.209 623.391C471.209 600.114 461.964 582.208 432.38 582.208C402.797 582.208 471.209 582.208 471.209 582.208V623.391Z" fill="#3E2810"/>
<path d="M38.4425 275.417C61.7194 275.417 79.6247 266.172 79.6248 236.588C79.6248 207.005 79.6248 275.417 79.6248 275.417H38.4425Z" fill="#3E2810"/>
<path d="M38.4425 465.042C61.7194 465.042 79.6247 455.797 79.6248 426.213C79.6248 396.63 79.6248 465.042 79.6248 465.042H38.4425Z" fill="#3E2810"/>
<path d="M234.234 73.4583C257.51 73.4583 275.416 64.2134 275.416 34.6298C275.416 5.04615 275.416 73.4583 275.416 73.4583H234.234Z" fill="#3E2810"/>
<path d="M430.027 73.4583C453.303 73.4583 471.209 64.2134 471.209 34.6298C471.209 5.04615 471.209 73.4583 471.209 73.4583H430.027Z" fill="#3E2810"/>
<path d="M237.973 582.208C214.697 582.208 196.791 591.453 196.791 621.037C196.791 650.62 196.791 582.208 196.791 582.208H237.973Z" fill="#3E2810"/>
<path d="M629.557 190.625C606.281 190.625 588.375 199.87 588.375 229.454C588.375 259.037 588.375 190.625 588.375 190.625H629.557Z" fill="#3E2810"/>
<path d="M629.557 392.583C606.281 392.583 588.375 401.828 588.375 431.412C588.375 460.995 588.375 392.583 588.375 392.583H629.557Z" fill="#3E2810"/>
<path d="M433.766 582.208C410.49 582.208 392.584 591.453 392.584 621.037C392.584 650.62 392.584 582.208 392.584 582.208H433.766Z" fill="#3E2810"/>
<path d="M629.557 582.208C606.281 582.208 588.375 591.453 588.375 621.037C588.375 650.62 588.375 582.208 588.375 582.208H629.557Z" fill="#3E2810"/>
<path d="M392.584 32.2761C392.584 55.5529 401.829 73.4582 431.413 73.4583C460.996 73.4584 392.584 73.4583 392.584 73.4583V32.2761Z" fill="#3E2810"/>
<path d="M588.375 32.2761C588.375 55.5529 597.62 73.4582 627.204 73.4583C656.787 73.4584 588.375 73.4583 588.375 73.4583V32.2761Z" fill="#3E2810"/>
</g>
<g filter="url(#filter1_i_12_41)">
<rect x="91.959" y="85.7917" width="100" height="100" rx="15" fill="#261604"/>
</g>
<g filter="url(#filter2_i_12_41)">
<rect x="91.959" y="287.75" width="100" height="100" rx="15" fill="#261604"/>
</g>
<g filter="url(#filter3_i_12_41)">
<rect x="91.959" y="477.375" width="100" height="100" rx="15" fill="#261604"/>
</g>
<g filter="url(#filter4_i_12_41)">
<rect x="287.75" y="482" width="100" height="100" rx="15" fill="#261604"/>
</g>
<g filter="url(#filter5_i_12_41)">
<rect x="483.543" y="477.375" width="100" height="100" rx="15" fill="#261604"/>
</g>
<g filter="url(#filter6_i_12_41)">
<rect x="483.543" y="283.125" width="100" height="100" rx="15" fill="#261604"/>
</g>
<g filter="url(#filter7_i_12_41)">
<rect x="287.75" y="283.125" width="100" height="100" rx="15" fill="#261604"/>
</g>
<g filter="url(#filter8_i_12_41)">
<rect x="287.75" y="85.7917" width="100" height="100" rx="15" fill="#261604"/>
</g>
<g filter="url(#filter9_i_12_41)">
<rect x="483.543" y="85.7917" width="100" height="100" rx="15" fill="#261604"/>
</g>
<defs>
<filter id="filter0_d_12_41" x="0" y="0" width="676" height="676" filterUnits="userSpaceOnUse" color-interpolation-filters="sRGB">
<feFlood flood-opacity="0" result="BackgroundImageFix"/>
<feColorMatrix in="SourceAlpha" type="matrix" values="0 0 0 0 0 0 0 0 0 0 0 0 0 0 0 0 0 0 127 0" result="hardAlpha"/>
<feOffset dx="4" dy="4"/>
<feGaussianBlur stdDeviation="2.5"/>
<feComposite in2="hardAlpha" operator="out"/>
<feColorMatrix type="matrix" values="0 0 0 0 0 0 0 0 0 0 0 0 0 0 0 0 0 0 0.5 0"/>
<feBlend mode="normal" in2="BackgroundImageFix" result="effect1_dropShadow_12_41"/>
<feBlend mode="normal" in="SourceGraphic" in2="effect1_dropShadow_12_41" result="shape"/>
</filter>
<filter id="filter1_i_12_41" x="91.959" y="85.7917" width="100" height="104" filterUnits="userSpaceOnUse" color-interpolation-filters="sRGB">
<feFlood flood-opacity="0" result="BackgroundImageFix"/>
<feBlend mode="normal" in="SourceGraphic" in2="BackgroundImageFix" result="shape"/>
<feColorMatrix in="SourceAlpha" type="matrix" values="0 0 0 0 0 0 0 0 0 0 0 0 0 0 0 0 0 0 127 0" result="hardAlpha"/>
<feOffset dy="4"/>
<feGaussianBlur stdDeviation="2"/>
<feComposite in2="hardAlpha" operator="arithmetic" k2="-1" k3="1"/>
<feColorMatrix type="matrix" values="0 0 0 0 0 0 0 0 0 0 0 0 0 0 0 0 0 0 0.25 0"/>
<feBlend mode="normal" in2="shape" result="effect1_innerShadow_12_41"/>
</filter>
<filter id="filter2_i_12_41" x="91.959" y="287.75" width="100" height="104" filterUnits="userSpaceOnUse" color-interpolation-filters="sRGB">
<feFlood flood-opacity="0" result="BackgroundImageFix"/>
<feBlend mode="normal" in="SourceGraphic" in2="BackgroundImageFix" result="shape"/>
<feColorMatrix in="SourceAlpha" type="matrix" values="0 0 0 0 0 0 0 0 0 0 0 0 0 0 0 0 0 0 127 0" result="hardAlpha"/>
<feOffset dy="4"/>
<feGaussianBlur stdDeviation="2"/>
<feComposite in2="hardAlpha" operator="arithmetic" k2="-1" k3="1"/>
<feColorMatrix type="matrix" values="0 0 0 0 0 0 0 0 0 0 0 0 0 0 0 0 0 0 0.25 0"/>
<feBlend mode="normal" in2="shape" result="effect1_innerShadow_12_41"/>
</filter>
<filter id="filter3_i_12_41" x="91.959" y="477.375" width="100" height="104" filterUnits="userSpaceOnUse" color-interpolation-filters="sRGB">
<feFlood flood-opacity="0" result="BackgroundImageFix"/>
<feBlend mode="normal" in="SourceGraphic" in2="BackgroundImageFix" result="shape"/>
<feColorMatrix in="SourceAlpha" type="matrix" values="0 0 0 0 0 0 0 0 0 0 0 0 0 0 0 0 0 0 127 0" result="hardAlpha"/>
<feOffset dy="4"/>
<feGaussianBlur stdDeviation="2"/>
<feComposite in2="hardAlpha" operator="arithmetic" k2="-1" k3="1"/>
<feColorMatrix type="matrix" values="0 0 0 0 0 0 0 0 0 0 0 0 0 0 0 0 0 0 0.25 0"/>
<feBlend mode="normal" in2="shape" result="effect1_innerShadow_12_41"/>
</filter>
<filter id="filter4_i_12_41" x="287.75" y="482" width="100" height="104" filterUnits="userSpaceOnUse" color-interpolation-filters="sRGB">
<feFlood flood-opacity="0" result="BackgroundImageFix"/>
<feBlend mode="normal" in="SourceGraphic" in2="BackgroundImageFix" result="shape"/>
<feColorMatrix in="SourceAlpha" type="matrix" values="0 0 0 0 0 0 0 0 0 0 0 0 0 0 0 0 0 0 127 0" result="hardAlpha"/>
<feOffset dy="4"/>
<feGaussianBlur stdDeviation="2"/>
<feComposite in2="hardAlpha" operator="arithmetic" k2="-1" k3="1"/>
<feColorMatrix type="matrix" values="0 0 0 0 0 0 0 0 0 0 0 0 0 0 0 0 0 0 0.25 0"/>
<feBlend mode="normal" in2="shape" result="effect1_innerShadow_12_41"/>
</filter>
<filter id="filter5_i_12_41" x="483.543" y="477.375" width="100" height="104" filterUnits="userSpaceOnUse" color-interpolation-filters="sRGB">
<feFlood flood-opacity="0" result="BackgroundImageFix"/>
<feBlend mode="normal" in="SourceGraphic" in2="BackgroundImageFix" result="shape"/>
<feColorMatrix in="SourceAlpha" type="matrix" values="0 0 0 0 0 0 0 0 0 0 0 0 0 0 0 0 0 0 127 0" result="hardAlpha"/>
<feOffset dy="4"/>
<feGaussianBlur stdDeviation="2"/>
<feComposite in2="hardAlpha" operator="arithmetic" k2="-1" k3="1"/>
<feColorMatrix type="matrix" values="0 0 0 0 0 0 0 0 0 0 0 0 0 0 0 0 0 0 0.25 0"/>
<feBlend mode="normal" in2="shape" result="effect1_innerShadow_12_41"/>
</filter>
<filter id="filter6_i_12_41" x="483.543" y="283.125" width="100" height="104" filterUnits="userSpaceOnUse" color-interpolation-filters="sRGB">
<feFlood flood-opacity="0" result="BackgroundImageFix"/>
<feBlend mode="normal" in="SourceGraphic" in2="BackgroundImageFix" result="shape"/>
<feColorMatrix in="SourceAlpha" type="matrix" values="0 0 0 0 0 0 0 0 0 0 0 0 0 0 0 0 0 0 127 0" result="hardAlpha"/>
<feOffset dy="4"/>
<feGaussianBlur stdDeviation="2"/>
<feComposite in2="hardAlpha" operator="arithmetic" k2="-1" k3="1"/>
<feColorMatrix type="matrix" values="0 0 0 0 0 0 0 0 0 0 0 0 0 0 0 0 0 0 0.25 0"/>
<feBlend mode="normal" in2="shape" result="effect1_innerShadow_12_41"/>
</filter>
<filter id="filter7_i_12_41" x="287.75" y="283.125" width="100" height="104" filterUnits="userSpaceOnUse" color-interpolation-filters="sRGB">
<feFlood flood-opacity="0" result="BackgroundImageFix"/>
<feBlend mode="normal" in="SourceGraphic" in2="BackgroundImageFix" result="shape"/>
<feColorMatrix in="SourceAlpha" type="matrix" values="0 0 0 0 0 0 0 0 0 0 0 0 0 0 0 0 0 0 127 0" result="hardAlpha"/>
<feOffset dy="4"/>
<feGaussianBlur stdDeviation="2"/>
<feComposite in2="hardAlpha" operator="arithmetic" k2="-1" k3="1"/>
<feColorMatrix type="matrix" values="0 0 0 0 0 0 0 0 0 0 0 0 0 0 0 0 0 0 0.25 0"/>
<feBlend mode="normal" in2="shape" result="effect1_innerShadow_12_41"/>
</filter>
<filter id="filter8_i_12_41" x="287.75" y="85.7917" width="100" height="104" filterUnits="userSpaceOnUse" color-interpolation-filters="sRGB">
<feFlood flood-opacity="0" result="BackgroundImageFix"/>
<feBlend mode="normal" in="SourceGraphic" in2="BackgroundImageFix" result="shape"/>
<feColorMatrix in="SourceAlpha" type="matrix" values="0 0 0 0 0 0 0 0 0 0 0 0 0 0 0 0 0 0 127 0" result="hardAlpha"/>
<feOffset dy="4"/>
<feGaussianBlur stdDeviation="2"/>
<feComposite in2="hardAlpha" operator="arithmetic" k2="-1" k3="1"/>
<feColorMatrix type="matrix" values="0 0 0 0 0 0 0 0 0 0 0 0 0 0 0 0 0 0 0.25 0"/>
<feBlend mode="normal" in2="shape" result="effect1_innerShadow_12_41"/>
</filter>
<filter id="filter9_i_12_41" x="483.543" y="85.7917" width="100" height="104" filterUnits="userSpaceOnUse" color-interpolation-filters="sRGB">
<feFlood flood-opacity="0" result="BackgroundImageFix"/>
<feBlend mode="normal" in="SourceGraphic" in2="BackgroundImageFix" result="shape"/>
<feColorMatrix in="SourceAlpha" type="matrix" values="0 0 0 0 0 0 0 0 0 0 0 0 0 0 0 0 0 0 127 0" result="hardAlpha"/>
<feOffset dy="4"/>
<feGaussianBlur stdDeviation="2"/>
<feComposite in2="hardAlpha" operator="arithmetic" k2="-1" k3="1"/>
<feColorMatrix type="matrix" values="0 0 0 0 0 0 0 0 0 0 0 0 0 0 0 0 0 0 0.25 0"/>
<feBlend mode="normal" in2="shape" result="effect1_innerShadow_12_41"/>
</filter>
</defs>
</svg>
